<?xml version="1.0" encoding="utf-8"?>
<!-- Generator: Adobe Illustrator 18.1.0, SVG Export Plug-In . SVG Version: 6.00 Build 0)  -->
<svg version="1.1" id="Layer_1" xmlns="http://www.w3.org/2000/svg" xmlns:xlink="http://www.w3.org/1999/xlink" x="0px" y="0px"
	 viewBox="0 0 258 88" enable-background="new 0 0 258 88" xml:space="preserve">
<g>
	<path fill="#17479D" d="M68.3,13.4l-1.1-3.9c0-0.1-0.1-0.3-0.1-0.6h0C67,9.2,67,9.4,67,9.5l-1.1,3.9H68.3 M70.3,17h-0.9l-0.8-2.6
		h-3.1L64.8,17h-0.9l2.8-9.2h0.9L70.3,17z"/>
	<path fill="#17479D" d="M77.7,13.3c0,2.6-0.9,3.9-2.8,3.9c-1.8,0-2.6-1.2-2.6-3.7V7.8h0.8v5.5c0,1.9,0.6,2.8,1.9,2.8
		c1.2,0,1.8-0.9,1.8-2.7V7.8h0.8V13.3"/>
	<polyline fill="#17479D" points="84.8,8.8 82.7,8.8 82.7,17 81.8,17 81.8,8.8 79.8,8.8 79.8,7.8 84.8,7.8 84.8,8.8 	"/>
	<path fill="#17479D" d="M89.9,8.6c-0.8,0-1.4,0.3-1.9,1c-0.5,0.7-0.7,1.6-0.7,2.7c0,1.1,0.2,2,0.7,2.7c0.5,0.7,1.1,1,1.8,1
		c0.8,0,1.4-0.3,1.9-1c0.5-0.7,0.7-1.6,0.7-2.8c0-1.2-0.2-2.1-0.7-2.8C91.3,8.9,90.7,8.6,89.9,8.6 M89.8,17.1c-1,0-1.9-0.4-2.5-1.3
		c-0.6-0.9-0.9-2-0.9-3.3c0-1.5,0.3-2.7,0.9-3.5C88,8.1,88.9,7.6,90,7.6c1,0,1.8,0.4,2.4,1.3c0.6,0.9,0.9,2,0.9,3.4
		c0,1.5-0.3,2.7-0.9,3.6C91.7,16.7,90.9,17.1,89.8,17.1z"/>
	<path fill="#17479D" d="M96.6,8.8v3.8h0.9c0.6,0,1-0.2,1.3-0.5c0.3-0.3,0.5-0.8,0.5-1.4c0-1.2-0.6-1.8-1.7-1.8H96.6 M96.6,13.5V17
		h-0.8V7.8h2c0.8,0,1.4,0.2,1.8,0.7c0.4,0.5,0.6,1.2,0.6,2c0,0.9-0.2,1.6-0.7,2.1c-0.5,0.6-1.1,0.8-1.9,0.8H96.6z"/>
	<path fill="#17479D" d="M106.1,13.4L105,9.5c0-0.1-0.1-0.3-0.1-0.6h0c0,0.3-0.1,0.5-0.1,0.6l-1.1,3.9H106.1 M108.1,17h-0.9
		l-0.8-2.6h-3.1l-0.7,2.6h-0.9l2.8-9.2h0.9L108.1,17z"/>
	<path fill="#17479D" d="M111,8.8v3.3h1.2c0.2,0,0.4,0,0.6-0.1c0.2-0.1,0.3-0.2,0.5-0.4c0.1-0.2,0.2-0.3,0.3-0.6
		c0.1-0.2,0.1-0.5,0.1-0.7c0-0.5-0.1-0.9-0.4-1.1c-0.3-0.3-0.6-0.4-1.1-0.4H111 M115.4,17h-1l-1.2-2.6c-0.1-0.2-0.2-0.4-0.3-0.6
		c-0.1-0.2-0.2-0.3-0.3-0.4c-0.1-0.1-0.2-0.2-0.4-0.2c-0.1-0.1-0.3-0.1-0.4-0.1H111V17h-0.8V7.8h2.2c0.3,0,0.6,0.1,0.9,0.2
		c0.3,0.1,0.5,0.3,0.7,0.5c0.2,0.2,0.4,0.5,0.5,0.8c0.1,0.3,0.2,0.7,0.2,1.1c0,0.3,0,0.6-0.1,0.9c-0.1,0.3-0.2,0.5-0.3,0.7
		c-0.1,0.2-0.3,0.4-0.5,0.5c-0.2,0.1-0.4,0.3-0.7,0.3v0c0.1,0.1,0.2,0.1,0.3,0.2c0.1,0.1,0.2,0.2,0.3,0.3c0.1,0.1,0.2,0.3,0.2,0.4
		c0.1,0.2,0.2,0.3,0.3,0.5L115.4,17z"/>
	<polyline fill="#17479D" points="121.7,8.8 119.6,8.8 119.6,17 118.7,17 118.7,8.8 116.6,8.8 116.6,7.8 121.7,7.8 121.7,8.8 	"/>
	<polyline fill="#17479D" points="127.6,17 123.8,17 123.8,7.8 127.5,7.8 127.5,8.8 124.6,8.8 124.6,11.8 127.3,11.8 127.3,12.8 
		124.6,12.8 124.6,16 127.6,16 127.6,17 	"/>
	<path fill="#17479D" d="M129.7,16.6v-1.3c0.1,0.1,0.3,0.2,0.4,0.3c0.2,0.1,0.3,0.2,0.5,0.3c0.2,0.1,0.4,0.1,0.5,0.2
		c0.2,0,0.3,0.1,0.5,0.1c0.5,0,0.9-0.1,1.2-0.4c0.3-0.2,0.4-0.6,0.4-1.1c0-0.2,0-0.5-0.1-0.6c-0.1-0.2-0.2-0.4-0.4-0.5
		c-0.2-0.2-0.3-0.3-0.5-0.4c-0.2-0.1-0.4-0.3-0.7-0.4c-0.3-0.2-0.5-0.3-0.7-0.5c-0.2-0.2-0.4-0.4-0.6-0.6c-0.2-0.2-0.3-0.4-0.4-0.7
		c-0.1-0.3-0.1-0.6-0.1-0.9c0-0.4,0.1-0.8,0.2-1.1c0.1-0.3,0.3-0.6,0.6-0.8c0.2-0.2,0.5-0.3,0.8-0.4c0.3-0.1,0.6-0.1,0.9-0.1
		c0.7,0,1.2,0.1,1.6,0.3v1.2c-0.4-0.4-1-0.6-1.6-0.6c-0.2,0-0.4,0-0.6,0.1c-0.2,0-0.4,0.1-0.5,0.2c-0.1,0.1-0.3,0.3-0.4,0.4
		c-0.1,0.2-0.1,0.4-0.1,0.6c0,0.2,0,0.4,0.1,0.6c0.1,0.2,0.2,0.3,0.3,0.5c0.1,0.1,0.3,0.3,0.5,0.4c0.2,0.1,0.4,0.3,0.7,0.4
		c0.3,0.2,0.5,0.3,0.7,0.5c0.2,0.2,0.4,0.4,0.6,0.6c0.2,0.2,0.3,0.5,0.4,0.7c0.1,0.3,0.2,0.6,0.2,0.9c0,0.5-0.1,0.8-0.2,1.1
		c-0.1,0.3-0.3,0.6-0.6,0.8c-0.2,0.2-0.5,0.3-0.8,0.4c-0.3,0.1-0.6,0.1-1,0.1c-0.1,0-0.3,0-0.4,0c-0.2,0-0.3-0.1-0.5-0.1
		c-0.2,0-0.3-0.1-0.5-0.2C129.9,16.8,129.8,16.7,129.7,16.6"/>
	<path fill="#034EA1" d="M129.7,16.6L129.7,16.6l0.1-1.3h-0.1l-0.1,0.1c0.1,0.1,0.3,0.3,0.4,0.4c0.2,0.1,0.3,0.2,0.5,0.3
		c0.2,0.1,0.4,0.1,0.5,0.2c0.2,0,0.4,0.1,0.5,0.1c0.5,0,0.9-0.1,1.2-0.4c0.3-0.3,0.4-0.6,0.4-1.1c0-0.3,0-0.5-0.1-0.7
		c-0.1-0.2-0.2-0.4-0.4-0.5c-0.2-0.2-0.3-0.3-0.5-0.4c-0.2-0.1-0.4-0.3-0.7-0.4c-0.2-0.2-0.5-0.3-0.7-0.5c-0.2-0.2-0.4-0.3-0.6-0.5
		c-0.2-0.2-0.3-0.4-0.4-0.7c-0.1-0.2-0.1-0.5-0.1-0.9c0-0.4,0.1-0.8,0.2-1c0.1-0.3,0.3-0.5,0.6-0.7c0.2-0.2,0.5-0.3,0.8-0.4
		c0.3-0.1,0.6-0.1,0.9-0.1c0.7,0,1.2,0.1,1.5,0.3l0-0.1h-0.1v1.2h0.1l0.1-0.1c-0.4-0.4-1-0.6-1.7-0.6c-0.2,0-0.4,0-0.6,0.1
		c-0.2,0-0.4,0.1-0.5,0.2c-0.2,0.1-0.3,0.3-0.4,0.5c-0.1,0.2-0.1,0.4-0.1,0.7c0,0.2,0,0.5,0.1,0.6c0.1,0.2,0.2,0.3,0.3,0.5
		c0.1,0.1,0.3,0.3,0.5,0.4c0.2,0.1,0.4,0.3,0.7,0.4c0.3,0.2,0.5,0.3,0.7,0.5c0.2,0.2,0.4,0.4,0.6,0.6c0.2,0.2,0.3,0.4,0.4,0.7
		c0.1,0.3,0.1,0.5,0.1,0.9c0,0.4-0.1,0.8-0.2,1.1c-0.1,0.3-0.3,0.5-0.5,0.7c-0.2,0.2-0.5,0.3-0.8,0.4c-0.3,0.1-0.6,0.1-1,0.1
		c-0.1,0-0.2,0-0.4,0c-0.2,0-0.3-0.1-0.5-0.1c-0.2,0-0.3-0.1-0.5-0.2C129.9,16.7,129.8,16.6,129.7,16.6L129.7,16.6L129.7,16.6
		L129.7,16.6L129.7,16.6c0.1,0.1,0.2,0.2,0.3,0.3c0.2,0.1,0.3,0.1,0.5,0.2c0.2,0,0.4,0.1,0.5,0.1c0.2,0,0.3,0,0.4,0
		c0.3,0,0.7,0,1-0.1c0.3-0.1,0.6-0.2,0.8-0.4c0.2-0.2,0.4-0.5,0.6-0.8c0.1-0.3,0.2-0.7,0.2-1.2c0-0.3-0.1-0.7-0.2-0.9
		c-0.1-0.3-0.2-0.5-0.4-0.7c-0.2-0.2-0.4-0.4-0.6-0.6c-0.2-0.2-0.5-0.4-0.7-0.5c-0.3-0.2-0.5-0.3-0.7-0.4c-0.2-0.1-0.4-0.3-0.5-0.4
		c-0.1-0.1-0.2-0.3-0.3-0.4c-0.1-0.2-0.1-0.3-0.1-0.6c0-0.2,0-0.4,0.1-0.6c0.1-0.2,0.2-0.3,0.3-0.4c0.1-0.1,0.3-0.2,0.5-0.2
		c0.2,0,0.4-0.1,0.5-0.1c0.7,0,1.2,0.2,1.6,0.5l0.1,0.1V8l0,0c-0.4-0.2-0.9-0.3-1.6-0.3c-0.3,0-0.6,0-0.9,0.1
		c-0.3,0.1-0.6,0.3-0.8,0.5c-0.2,0.2-0.4,0.5-0.6,0.8c-0.2,0.3-0.2,0.7-0.2,1.1c0,0.3,0,0.6,0.1,0.9c0.1,0.3,0.2,0.5,0.4,0.7
		c0.2,0.2,0.4,0.4,0.6,0.6c0.2,0.2,0.5,0.3,0.7,0.5c0.2,0.2,0.5,0.3,0.7,0.4c0.2,0.1,0.4,0.3,0.5,0.4c0.1,0.1,0.3,0.3,0.3,0.5
		c0.1,0.2,0.1,0.4,0.1,0.6c0,0.4-0.1,0.8-0.4,1c-0.2,0.2-0.6,0.3-1.1,0.3c-0.1,0-0.3,0-0.5-0.1c-0.2,0-0.3-0.1-0.5-0.2
		c-0.2-0.1-0.3-0.2-0.5-0.3c-0.2-0.1-0.3-0.2-0.4-0.3l-0.1-0.2L129.7,16.6L129.7,16.6L129.7,16.6 M127.6,16.9L127.6,16.9l-3.8-0.1
		V7.9h3.5v0.8h-2.8v3.2h2.6v0.8h-2.6v3.3h3L127.6,16.9L127.6,16.9L127.6,16.9L127.6,16.9L127.6,16.9l0.1-1h-3v-3h2.6v-1.1h-2.6V8.9
		h2.8V7.8h-3.8V17L127.6,16.9L127.6,16.9L127.6,16.9z M121.6,8.8L121.6,8.8l-2.2-0.1v8.1h-0.7V8.7h-2.1V7.9h4.9L121.6,8.8L121.6,8.8
		L121.6,8.8L121.6,8.8L121.6,8.8l0.1-1h-5.2v1.1h2.1V17h1V8.9L121.6,8.8L121.6,8.8L121.6,8.8z M111,8.8L111,8.8l-0.1,3.4h1.2
		c0.2,0,0.4,0,0.6-0.1c0.2-0.1,0.4-0.2,0.5-0.4c0.1-0.2,0.2-0.4,0.3-0.6c0.1-0.2,0.1-0.5,0.1-0.8c0-0.5-0.1-0.9-0.4-1.2
		c-0.3-0.3-0.7-0.4-1.1-0.4L111,8.8L111,8.8L111,8.8L111,8.8l1.2,0.1c0.5,0,0.8,0.1,1,0.4c0.2,0.3,0.4,0.6,0.4,1.1
		c0,0.3,0,0.5-0.1,0.7c-0.1,0.2-0.2,0.4-0.3,0.5c-0.1,0.1-0.3,0.3-0.4,0.3c-0.2,0.1-0.4,0.1-0.6,0.1h-1.1L111,8.8L111,8.8L111,8.8
		L111,8.8z M115.4,16.9L115.4,16.9l-1-0.1l-1.2-2.5c-0.1-0.2-0.2-0.4-0.3-0.6c-0.1-0.2-0.2-0.3-0.3-0.4c-0.1-0.1-0.2-0.2-0.4-0.2
		c-0.1-0.1-0.3-0.1-0.5-0.1h-0.8v3.9h-0.7V7.9h2.1c0.3,0,0.6,0,0.8,0.1c0.3,0.1,0.5,0.2,0.7,0.4c0.2,0.2,0.3,0.4,0.4,0.7
		c0.1,0.3,0.2,0.6,0.2,1c0,0.3,0,0.6-0.1,0.9c-0.1,0.3-0.2,0.5-0.3,0.7c-0.1,0.2-0.3,0.4-0.5,0.5c-0.2,0.1-0.4,0.3-0.6,0.3l-0.1,0
		v0.1l0,0c0.1,0.1,0.2,0.1,0.3,0.2c0.1,0.1,0.2,0.2,0.2,0.3c0.1,0.1,0.2,0.2,0.2,0.4c0.1,0.1,0.2,0.3,0.3,0.5L115.4,16.9L115.4,16.9
		L115.4,16.9L115.4,16.9L115.4,16.9l-1.3-2.8c-0.1-0.2-0.2-0.4-0.3-0.5c-0.1-0.2-0.2-0.3-0.2-0.4c-0.1-0.1-0.2-0.2-0.3-0.3
		c-0.1-0.1-0.2-0.2-0.3-0.2l0,0.1h0.1v0h-0.1l0,0.1c0.3-0.1,0.5-0.2,0.7-0.4c0.2-0.2,0.4-0.3,0.5-0.5c0.1-0.2,0.3-0.5,0.3-0.7
		c0.1-0.3,0.1-0.6,0.1-0.9c0-0.4-0.1-0.8-0.2-1.1c-0.1-0.3-0.3-0.6-0.5-0.8c-0.2-0.2-0.4-0.4-0.7-0.5c-0.3-0.1-0.6-0.2-0.9-0.2h-2.2
		V17h1v-3.9h0.6c0.2,0,0.3,0,0.4,0.1c0.1,0,0.2,0.1,0.3,0.2c0.1,0.1,0.2,0.2,0.3,0.4c0.1,0.2,0.2,0.4,0.3,0.6l1.2,2.6h1.2
		L115.4,16.9L115.4,16.9z M106.1,13.4L106.1,13.4l-1.1-3.9c0-0.1-0.1-0.3-0.1-0.6l0-0.1h-0.2l0,0.1c0,0.3-0.1,0.5-0.1,0.6l-1.2,4
		h2.7L106.1,13.4L106.1,13.4L106.1,13.4l-2.4-0.1l1.1-3.8c0-0.2,0.1-0.4,0.1-0.6l-0.1,0V9h0V8.9l-0.1,0c0,0.3,0.1,0.5,0.1,0.6
		L106.1,13.4L106.1,13.4L106.1,13.4L106.1,13.4z M108.1,16.9L108.1,16.9l-0.9-0.1l-0.8-2.6h-3.2l-0.7,2.6h-0.8l2.7-8.9h0.8
		L108.1,16.9L108.1,16.9L108.1,16.9L108.1,16.9L108.1,16.9l-2.7-9.2h-1l-2.8,9.3h1.1l0.7-2.6h3l0.8,2.6h1.1L108.1,16.9L108.1,16.9z
		 M96.6,8.8L96.6,8.8l-0.1,3.8h1c0.6,0,1.1-0.2,1.4-0.5c0.3-0.4,0.5-0.9,0.5-1.5c0-0.6-0.1-1.1-0.4-1.4c-0.3-0.3-0.8-0.5-1.3-0.5
		L96.6,8.8L96.6,8.8L96.6,8.8L96.6,8.8l1,0.1c0.6,0,1,0.1,1.2,0.4c0.3,0.3,0.4,0.7,0.4,1.3c0,0.6-0.2,1.1-0.4,1.4
		c-0.3,0.3-0.7,0.5-1.3,0.5h-0.8L96.6,8.8L96.6,8.8L96.6,8.8L96.6,8.8z M96.6,13.5L96.6,13.5l-0.1,3.4h-0.7V7.9h1.9
		c0.8,0,1.3,0.2,1.7,0.7c0.4,0.5,0.6,1.1,0.6,2c0,0.8-0.2,1.5-0.7,2.1c-0.5,0.5-1.1,0.8-1.9,0.8L96.6,13.5L96.6,13.5L96.6,13.5
		L96.6,13.5l1,0.1c0.8,0,1.5-0.3,2-0.9c0.5-0.6,0.7-1.3,0.7-2.2c0-0.9-0.2-1.6-0.7-2.1c-0.4-0.5-1.1-0.7-1.9-0.7h-2.1V17h1
		L96.6,13.5L96.6,13.5L96.6,13.5L96.6,13.5z M89.9,8.6L89.9,8.6c-0.8-0.1-1.4,0.3-1.9,1c-0.5,0.7-0.7,1.6-0.7,2.8
		c0,1.1,0.2,2.1,0.7,2.8c0.5,0.7,1.1,1.1,1.9,1.1c0.8,0,1.5-0.3,1.9-1c0.5-0.7,0.7-1.6,0.7-2.8c0-1.2-0.2-2.2-0.7-2.8
		C91.4,8.9,90.7,8.6,89.9,8.6L89.9,8.6c0.8,0.1,1.3,0.4,1.8,1c0.4,0.6,0.7,1.5,0.7,2.7c0,1.2-0.2,2.1-0.7,2.7
		c-0.4,0.6-1,0.9-1.8,0.9c-0.7,0-1.3-0.3-1.7-1c-0.5-0.7-0.7-1.6-0.7-2.7c0-1.1,0.2-2,0.7-2.7C88.6,9.1,89.2,8.7,89.9,8.6L89.9,8.6z
		 M89.9,17.1L89.9,17.1c-1-0.1-1.8-0.5-2.4-1.3c-0.6-0.8-0.9-1.9-0.9-3.3c0-1.5,0.3-2.6,0.9-3.5c0.6-0.9,1.4-1.3,2.5-1.3
		c1,0,1.8,0.4,2.4,1.2c0.6,0.8,0.9,1.9,0.9,3.3c0,1.5-0.3,2.6-0.9,3.5C91.7,16.6,90.9,17,89.9,17.1L89.9,17.1
		c1.1,0.1,1.9-0.4,2.6-1.2c0.6-0.9,1-2.1,1-3.6c0-1.4-0.3-2.5-0.9-3.4C91.8,8,91,7.6,90,7.6c-1.1,0-2,0.4-2.6,1.3
		c-0.6,0.9-1,2.1-1,3.5c0,1.4,0.3,2.5,0.9,3.4C88,16.7,88.8,17.2,89.9,17.1L89.9,17.1z M84.8,8.8L84.8,8.8l-2.2-0.1v8.1H82l0-8.1
		h-2.1V7.9h4.9L84.8,8.8L84.8,8.8L84.8,8.8L84.8,8.8L84.8,8.8l0.1-1h-5.2v1.1h2.1V17h1V8.9L84.8,8.8L84.8,8.8L84.8,8.8z M77.7,13.3
		L77.7,13.3c-0.1,1.3-0.3,2.2-0.8,2.8c-0.4,0.6-1.1,0.9-2,0.9c-0.9,0-1.5-0.3-1.9-0.9c-0.4-0.6-0.6-1.5-0.6-2.7V7.9h0.7v5.4
		c0,0.9,0.2,1.7,0.5,2.1c0.3,0.5,0.8,0.7,1.5,0.7c0.6,0,1.1-0.2,1.4-0.7c0.3-0.5,0.5-1.2,0.5-2.1V7.9h0.7L77.7,13.3L77.7,13.3
		l0.1-5.5h-1v5.7c0,0.9-0.2,1.6-0.4,2c-0.3,0.4-0.7,0.6-1.3,0.6c-0.6,0-1-0.2-1.3-0.7c-0.3-0.4-0.5-1.1-0.5-2.1V7.8h-1v5.6
		c0,1.2,0.2,2.2,0.7,2.8c0.5,0.6,1.1,1,2,1c0.9,0,1.7-0.3,2.1-1C77.6,15.5,77.8,14.5,77.7,13.3L77.7,13.3z M68.4,13.4L68.4,13.4
		l-1.1-3.9c0-0.1-0.1-0.3-0.1-0.6l0-0.1h-0.2l0,0.1c0,0.3-0.1,0.5-0.1,0.6l-1.2,4h2.7L68.4,13.4L68.4,13.4L68.4,13.4L66,13.3
		l1.1-3.8c0-0.2,0.1-0.4,0.1-0.6l-0.1,0V9h0V8.9l-0.1,0c0,0.3,0.1,0.5,0.1,0.6L68.4,13.4L68.4,13.4L68.4,13.4L68.4,13.4z M70.4,16.9
		L70.4,16.9l-0.9-0.1l-0.8-2.6h-3.2l-0.7,2.6H64l2.7-8.9h0.8L70.4,16.9L70.4,16.9L70.4,16.9L70.4,16.9L70.4,16.9l-2.7-9.2h-1
		L63.8,17h1.1l0.7-2.6h3l0.8,2.6h1.1L70.4,16.9L70.4,16.9z"/>
	<path fill="#17479D" d="M151,71.8v6.2h0.9c0.8,0,1.5-0.3,1.9-0.8c0.5-0.6,0.7-1.3,0.7-2.4c0-2-0.9-3-2.6-3H151 M150.3,78.9V71h1.7
		c2.2,0,3.3,1.3,3.3,3.9c0,1.2-0.3,2.2-0.9,2.9c-0.6,0.7-1.4,1.1-2.5,1.1H150.3z"/>
	<polyline fill="#17479D" points="160.3,78.9 157,78.9 157,71 160.2,71 160.2,71.8 157.7,71.8 157.7,74.5 160,74.5 160,75.3 
		157.7,75.3 157.7,78.1 160.3,78.1 160.3,78.9 	"/>
	<path fill="#17479D" d="M172.1,78.9h-0.7v-5.3c0-0.4,0-0.9,0.1-1.5h0c-0.1,0.4-0.1,0.6-0.2,0.8l-2.2,6.1h-0.4l-2.2-6
		c-0.1-0.2-0.1-0.4-0.2-0.8h0c0,0.3,0,0.8,0,1.5v5.3h-0.7V71h1l1.9,5.5c0.2,0.4,0.2,0.7,0.3,0.9h0c0.1-0.4,0.2-0.8,0.3-1l2-5.5h0.9
		V78.9"/>
	<polyline fill="#17479D" points="177.5,78.9 174.1,78.9 174.1,71 177.3,71 177.3,71.8 174.9,71.8 174.9,74.5 177.2,74.5 
		177.2,75.3 174.9,75.3 174.9,78.1 177.5,78.1 177.5,78.9 	"/>
	<path fill="#17479D" d="M183.4,78.9h-0.9l-1.5-3c0-0.1-0.1-0.2-0.1-0.4h0c0,0.1-0.1,0.2-0.1,0.4l-1.5,3h-0.9l2.1-4l-1.9-3.9h0.9
		l1.3,2.8c0.1,0.2,0.2,0.4,0.2,0.6h0c0.1-0.2,0.2-0.4,0.2-0.6l1.3-2.8h0.9l-2,3.9L183.4,78.9"/>
	<polyline fill="#17479D" points="186.1,71 186.1,71.8 185.5,71.8 185.5,78.1 186.1,78.1 186.1,78.9 184.1,78.9 184.1,78.1 
		184.8,78.1 184.8,71.8 184.1,71.8 184.1,71 186.1,71 	"/>
	<path fill="#17479D" d="M191.8,78.6c-0.5,0.3-1,0.5-1.7,0.5c-0.9,0-1.6-0.4-2.2-1.1c-0.5-0.7-0.8-1.7-0.8-2.8
		c0-1.3,0.3-2.3,0.9-3.1c0.6-0.8,1.4-1.2,2.3-1.2c0.6,0,1.1,0.1,1.5,0.3v1c-0.5-0.3-1-0.5-1.5-0.5c-0.7,0-1.3,0.3-1.8,0.9
		c-0.5,0.6-0.7,1.4-0.7,2.4c0,1,0.2,1.7,0.6,2.3c0.4,0.6,1,0.9,1.7,0.9c0.6,0,1.2-0.2,1.6-0.5V78.6"/>
	<path fill="#17479D" d="M196.1,71.7c-0.7,0-1.2,0.3-1.6,0.9c-0.4,0.6-0.6,1.4-0.6,2.4c0,1,0.2,1.8,0.6,2.4c0.4,0.6,0.9,0.9,1.6,0.9
		c0.7,0,1.2-0.3,1.6-0.8c0.4-0.6,0.6-1.4,0.6-2.4c0-1-0.2-1.8-0.6-2.4C197.3,72,196.8,71.7,196.1,71.7 M196,79
		c-0.9,0-1.6-0.4-2.2-1.1c-0.5-0.7-0.8-1.7-0.8-2.9c0-1.3,0.3-2.3,0.8-3c0.5-0.8,1.3-1.1,2.2-1.1c0.9,0,1.6,0.4,2.1,1.1
		c0.5,0.7,0.8,1.7,0.8,2.9c0,1.3-0.3,2.3-0.8,3.1C197.7,78.7,197,79,196,79z"/>
	<polyline fill="#17479D" points="201.2,77.6 200.5,80.4 200,80.4 200.5,77.6 201.2,77.6 	"/>
	<path fill="#17479D" d="M206.4,78.6v-1.1c0.1,0.1,0.2,0.2,0.4,0.3c0.1,0.1,0.3,0.2,0.4,0.2c0.2,0.1,0.3,0.1,0.5,0.1
		c0.2,0,0.3,0,0.4,0c0.5,0,0.8-0.1,1-0.3c0.2-0.2,0.3-0.5,0.3-0.9c0-0.2,0-0.4-0.1-0.6c-0.1-0.2-0.2-0.3-0.3-0.4
		c-0.1-0.1-0.3-0.3-0.5-0.4c-0.2-0.1-0.4-0.2-0.6-0.4c-0.2-0.1-0.4-0.3-0.6-0.4c-0.2-0.1-0.4-0.3-0.5-0.5c-0.1-0.2-0.3-0.4-0.3-0.6
		c-0.1-0.2-0.1-0.5-0.1-0.8c0-0.4,0.1-0.7,0.2-0.9c0.1-0.3,0.3-0.5,0.5-0.7c0.2-0.2,0.4-0.3,0.7-0.4c0.3-0.1,0.5-0.1,0.8-0.1
		c0.6,0,1.1,0.1,1.4,0.3v1c-0.4-0.3-0.9-0.5-1.4-0.5c-0.2,0-0.3,0-0.5,0.1c-0.2,0-0.3,0.1-0.4,0.2c-0.1,0.1-0.2,0.2-0.3,0.4
		c-0.1,0.2-0.1,0.3-0.1,0.6c0,0.2,0,0.4,0.1,0.5c0.1,0.1,0.1,0.3,0.3,0.4c0.1,0.1,0.3,0.2,0.4,0.4c0.2,0.1,0.4,0.2,0.6,0.4
		c0.2,0.1,0.4,0.3,0.6,0.4c0.2,0.2,0.4,0.3,0.5,0.5c0.2,0.2,0.3,0.4,0.4,0.6c0.1,0.2,0.1,0.5,0.1,0.8c0,0.4-0.1,0.7-0.2,1
		c-0.1,0.3-0.3,0.5-0.5,0.7c-0.2,0.2-0.4,0.3-0.7,0.4c-0.3,0.1-0.6,0.1-0.9,0.1c-0.1,0-0.2,0-0.4,0c-0.1,0-0.3,0-0.5-0.1
		c-0.2,0-0.3-0.1-0.4-0.1C206.6,78.7,206.5,78.7,206.4,78.6"/>
	<path fill="#17479D" d="M212.1,79c-0.1,0-0.2-0.1-0.3-0.2c-0.1-0.1-0.1-0.3-0.1-0.4c0-0.2,0-0.3,0.1-0.4c0.1-0.1,0.2-0.2,0.3-0.2
		c0.1,0,0.3,0.1,0.4,0.2c0.1,0.1,0.1,0.3,0.1,0.4c0,0.2,0,0.3-0.1,0.4C212.3,79,212.2,79,212.1,79"/>
	<path fill="#17479D" d="M217.4,75.9l-1-3.4c0-0.1-0.1-0.3-0.1-0.5h0c0,0.2-0.1,0.4-0.1,0.5l-1,3.4H217.4 M219.1,78.9h-0.8l-0.7-2.2
		h-2.7l-0.6,2.2h-0.8l2.4-7.9h0.8L219.1,78.9z"/>
	<path fill="#17479D" d="M220.6,79c-0.1,0-0.3-0.1-0.3-0.2c-0.1-0.1-0.1-0.3-0.1-0.4c0-0.2,0-0.3,0.1-0.4c0.1-0.1,0.2-0.2,0.3-0.2
		c0.1,0,0.3,0.1,0.4,0.2c0.1,0.1,0.1,0.3,0.1,0.4c0,0.2,0,0.3-0.1,0.4C220.8,79,220.7,79,220.6,79"/>
	<path fill="#17479D" d="M227.2,71.8v6.2h0.9c0.8,0,1.5-0.3,1.9-0.8c0.5-0.6,0.7-1.3,0.7-2.4c0-2-0.9-3-2.6-3H227.2 M226.5,78.9V71
		h1.7c2.2,0,3.3,1.3,3.3,3.9c0,1.2-0.3,2.2-0.9,2.9c-0.6,0.7-1.4,1.1-2.5,1.1H226.5z"/>
	<polyline fill="#17479D" points="236.5,78.9 233.2,78.9 233.2,71 236.4,71 236.4,71.8 233.9,71.8 233.9,74.5 236.2,74.5 
		236.2,75.3 233.9,75.3 233.9,78.1 236.5,78.1 236.5,78.9 	"/>
	<path fill="#17479D" d="M246.2,78.6c-0.5,0.3-1,0.5-1.7,0.5c-0.9,0-1.6-0.4-2.2-1.1c-0.5-0.7-0.8-1.7-0.8-2.8
		c0-1.3,0.3-2.3,0.9-3.1c0.6-0.8,1.4-1.2,2.3-1.2c0.6,0,1.1,0.1,1.5,0.3v1c-0.5-0.3-1-0.5-1.5-0.5c-0.7,0-1.3,0.3-1.8,0.9
		c-0.5,0.6-0.7,1.4-0.7,2.4c0,1,0.2,1.7,0.6,2.3c0.4,0.6,1,0.9,1.7,0.9c0.6,0,1.2-0.2,1.6-0.5V78.6"/>
	<path fill="#17479D" d="M248,79c-0.1,0-0.2-0.1-0.3-0.2c-0.1-0.1-0.1-0.3-0.1-0.4c0-0.2,0-0.3,0.1-0.4c0.1-0.1,0.2-0.2,0.3-0.2
		c0.1,0,0.3,0.1,0.4,0.2c0.1,0.1,0.1,0.3,0.1,0.4c0,0.2,0,0.3-0.1,0.4C248.2,79,248.1,79,248,79"/>
	<path fill="#17479D" d="M254.8,71l-2.3,7.9h-0.8l-2.3-7.9h0.8l1.7,6.3c0.1,0.2,0.1,0.4,0.1,0.7h0c0-0.2,0.1-0.5,0.1-0.7L254,71
		H254.8"/>
	<path fill="#17479D" d="M256.3,79c-0.1,0-0.3-0.1-0.3-0.2c-0.1-0.1-0.1-0.3-0.1-0.4c0-0.2,0-0.3,0.1-0.4c0.1-0.1,0.2-0.2,0.3-0.2
		c0.1,0,0.3,0.1,0.4,0.2c0.1,0.1,0.1,0.3,0.1,0.4c0,0.2,0,0.3-0.1,0.4C256.5,79,256.4,79,256.3,79"/>
	<path fill="#034EA1" d="M256.2,79L256.2,79c-0.1-0.1-0.2-0.1-0.3-0.2c-0.1-0.1-0.1-0.2-0.1-0.4c0-0.2,0-0.3,0.1-0.4
		c0.1-0.1,0.2-0.2,0.3-0.2c0.1,0,0.2,0,0.3,0.2c0.1,0.1,0.1,0.2,0.1,0.4c0,0.2,0,0.3-0.1,0.4C256.4,78.9,256.3,78.9,256.2,79
		L256.2,79c0.2,0.1,0.3,0,0.4-0.1c0.1-0.1,0.2-0.3,0.2-0.5c0-0.2-0.1-0.3-0.2-0.5c-0.1-0.1-0.3-0.2-0.4-0.2c-0.2,0-0.3,0.1-0.4,0.2
		c-0.1,0.1-0.2,0.3-0.2,0.5c0,0.2,0.1,0.3,0.2,0.5C255.9,79,256.1,79.1,256.2,79L256.2,79 M254.8,71L254.8,71l-2.4,7.8h-0.7
		l-2.2-7.7h0.7l1.7,6.2c0.1,0.2,0.1,0.4,0.1,0.7l0,0.1h0.2l0-0.1c0-0.2,0.1-0.4,0.1-0.7l1.8-6.1L254.8,71L254.8,71L254.8,71
		L254.8,71L254.8,71l-0.9-0.1l-1.8,6.3c-0.1,0.3-0.1,0.5-0.1,0.7l0.1,0v-0.1h0v0.1l0.1,0c0-0.3-0.1-0.5-0.1-0.7l-1.8-6.3h-1l2.3,8
		h0.9l2.4-8L254.8,71L254.8,71z M247.9,79L247.9,79c-0.1-0.1-0.2-0.1-0.3-0.2c-0.1-0.1-0.1-0.2-0.1-0.4c0-0.2,0-0.3,0.1-0.4
		c0.1-0.1,0.2-0.2,0.3-0.2c0.1,0,0.2,0,0.3,0.2c0.1,0.1,0.1,0.2,0.1,0.4c0,0.2,0,0.3-0.1,0.4C248.1,78.9,248,78.9,247.9,79L247.9,79
		c0.2,0.1,0.3,0,0.4-0.1c0.1-0.1,0.2-0.3,0.2-0.5c0-0.2-0.1-0.3-0.2-0.5c-0.1-0.1-0.3-0.2-0.4-0.2c-0.2,0-0.3,0.1-0.4,0.2
		c-0.1,0.1-0.2,0.3-0.2,0.5c0,0.2,0.1,0.3,0.2,0.5C247.6,79,247.8,79.1,247.9,79L247.9,79z M246.1,78.5L246.1,78.5
		c-0.5,0.2-1.1,0.4-1.7,0.4c-0.9,0-1.6-0.3-2.1-1c-0.5-0.7-0.8-1.6-0.8-2.8c0-1.2,0.3-2.2,0.9-3c0.6-0.8,1.3-1.1,2.3-1.1
		c0.6,0,1.1,0.1,1.5,0.3l0-0.1H246v1h0.1l0-0.1c-0.5-0.3-1-0.5-1.5-0.5c-0.7,0-1.4,0.3-1.8,0.9c-0.5,0.6-0.7,1.4-0.7,2.5
		c0,1,0.2,1.7,0.6,2.3c0.4,0.6,1,0.9,1.7,0.9c0.6,0,1.2-0.2,1.7-0.5l0-0.1H246L246.1,78.5L246.1,78.5L246.1,78.5L246.1,78.5
		L246.1,78.5l0.1-1l-0.1,0.1c-0.4,0.3-1,0.5-1.6,0.5c-0.7,0-1.2-0.3-1.6-0.8c-0.4-0.5-0.6-1.3-0.6-2.2c0-1,0.2-1.8,0.7-2.4
		c0.4-0.6,1-0.9,1.7-0.9c0.5,0,1,0.2,1.5,0.5l0.1,0.1v-1.2l0,0c-0.4-0.2-0.9-0.3-1.5-0.3c-1,0-1.8,0.4-2.4,1.2
		c-0.6,0.8-0.9,1.8-0.9,3.1c0,1.2,0.3,2.1,0.8,2.9c0.6,0.7,1.3,1.1,2.2,1.1C245.1,79.1,245.7,78.9,246.1,78.5L246.1,78.5L246.1,78.5
		L246.1,78.5z M236.5,78.9L236.5,78.9l-3.3-0.1v-7.7h3v0.7h-2.5v2.8h2.3v0.7h-2.3v2.9h2.6L236.5,78.9L236.5,78.9L236.5,78.9
		L236.5,78.9L236.5,78.9l0.1-0.9H234v-2.6h2.3v-1H234V72h2.5v-1h-3.4v8L236.5,78.9L236.5,78.9L236.5,78.9z M227.2,71.9L227.2,71.9
		l-0.1,6.3h1c0.8,0,1.5-0.3,2-0.9c0.5-0.6,0.7-1.4,0.7-2.4c0-1-0.2-1.8-0.7-2.3c-0.4-0.5-1.1-0.8-2-0.8L227.2,71.9L227.2,71.9
		L227.2,71.9L227.2,71.9l1,0.1c0.8,0,1.5,0.2,1.9,0.7c0.4,0.5,0.6,1.2,0.6,2.2c0,1-0.2,1.8-0.7,2.3c-0.4,0.5-1.1,0.8-1.9,0.8h-0.9
		L227.2,71.9L227.2,71.9L227.2,71.9L227.2,71.9z M226.5,78.9L226.5,78.9l0.1-7.8l1.7,0c1.1,0,1.9,0.3,2.4,0.9
		c0.5,0.6,0.8,1.5,0.8,2.8c0,1.2-0.3,2.1-0.9,2.9c-0.6,0.7-1.4,1.1-2.4,1.1L226.5,78.9L226.5,78.9L226.5,78.9L226.5,78.9L226.5,78.9
		l1.7,0.1c1.1,0,1.9-0.4,2.5-1.1c0.6-0.8,0.9-1.7,0.9-3c0-1.3-0.3-2.3-0.9-2.9c-0.6-0.7-1.4-1-2.6-1h-1.8L226.5,78.9L226.5,78.9
		L226.5,78.9z M220.6,79L220.6,79c-0.1-0.1-0.2-0.1-0.3-0.2c-0.1-0.1-0.1-0.2-0.1-0.4c0-0.2,0-0.3,0.1-0.4c0.1-0.1,0.2-0.2,0.3-0.2
		c0.1,0,0.2,0,0.3,0.2c0.1,0.1,0.1,0.2,0.1,0.4c0,0.2,0,0.3-0.1,0.4C220.8,78.9,220.7,78.9,220.6,79L220.6,79c0.2,0.1,0.3,0,0.4-0.1
		c0.1-0.1,0.2-0.3,0.2-0.5c0-0.2-0.1-0.3-0.2-0.5c-0.1-0.1-0.3-0.2-0.4-0.2c-0.2,0-0.3,0.1-0.4,0.2c-0.1,0.1-0.2,0.3-0.2,0.5
		c0,0.2,0.1,0.3,0.2,0.5C220.3,79,220.4,79.1,220.6,79L220.6,79z M217.4,75.9L217.4,75.9l-0.9-3.4c0-0.1-0.1-0.3-0.1-0.5l0-0.1h-0.2
		l0,0.1c0,0.2-0.1,0.4-0.1,0.5l-1,3.4h2.4L217.4,75.9L217.4,75.9L217.4,75.9l-2.1-0.1l1-3.2c0-0.1,0.1-0.3,0.1-0.5l-0.1,0v0.1h0V72
		l-0.1,0c0,0.2,0.1,0.4,0.1,0.5L217.4,75.9L217.4,75.9L217.4,75.9L217.4,75.9z M219.1,78.9L219.1,78.9l-0.8-0.1l-0.7-2.2h-2.8
		l-0.6,2.2h-0.7l2.4-7.7h0.7L219.1,78.9L219.1,78.9L219.1,78.9L219.1,78.9L219.1,78.9l-2.4-7.9h-0.9l-2.5,8h1l0.6-2.2h2.6l0.7,2.2h1
		L219.1,78.9L219.1,78.9z M212,79L212,79c-0.1-0.1-0.2-0.1-0.3-0.2c-0.1-0.1-0.1-0.2-0.1-0.4c0-0.2,0-0.3,0.1-0.4
		c0.1-0.1,0.2-0.2,0.3-0.2c0.1,0,0.2,0,0.3,0.2c0.1,0.1,0.1,0.2,0.1,0.4c0,0.2,0,0.3-0.1,0.4C212.3,78.9,212.2,78.9,212,79L212,79
		c0.2,0.1,0.3,0,0.4-0.1c0.1-0.1,0.2-0.3,0.2-0.5c0-0.2-0.1-0.3-0.2-0.5c-0.1-0.1-0.3-0.2-0.4-0.2c-0.2,0-0.3,0.1-0.4,0.2
		c-0.1,0.1-0.2,0.3-0.2,0.5c0,0.2,0.1,0.3,0.2,0.5C211.7,79,211.9,79.1,212,79L212,79z M206.4,78.6L206.4,78.6l0.1-1.1h-0.1
		l-0.1,0.1c0.1,0.1,0.2,0.2,0.4,0.3c0.1,0.1,0.3,0.2,0.5,0.2c0.2,0.1,0.3,0.1,0.5,0.1c0.2,0,0.3,0.1,0.4,0.1c0.5,0,0.8-0.1,1.1-0.3
		c0.2-0.2,0.4-0.6,0.4-1c0-0.2,0-0.4-0.1-0.6c-0.1-0.2-0.2-0.3-0.3-0.5c-0.1-0.1-0.3-0.3-0.5-0.4c-0.2-0.1-0.4-0.2-0.6-0.4
		c-0.2-0.1-0.4-0.3-0.6-0.4c-0.2-0.1-0.3-0.3-0.5-0.5c-0.1-0.2-0.2-0.4-0.3-0.6c-0.1-0.2-0.1-0.5-0.1-0.7c0-0.3,0.1-0.6,0.2-0.9
		c0.1-0.3,0.3-0.5,0.5-0.6c0.2-0.2,0.4-0.3,0.7-0.4c0.3-0.1,0.5-0.1,0.8-0.1c0.6,0,1.1,0.1,1.3,0.3l0-0.1h-0.1v1h0.1l0.1-0.1
		c-0.4-0.3-0.9-0.5-1.5-0.5c-0.2,0-0.3,0-0.5,0.1c-0.2,0-0.3,0.1-0.5,0.2c-0.1,0.1-0.2,0.2-0.3,0.4c-0.1,0.2-0.1,0.4-0.1,0.6
		c0,0.2,0,0.4,0.1,0.5c0.1,0.2,0.2,0.3,0.3,0.4c0.1,0.1,0.3,0.2,0.4,0.4c0.2,0.1,0.4,0.2,0.6,0.4c0.2,0.1,0.4,0.3,0.6,0.4
		c0.2,0.1,0.4,0.3,0.5,0.5c0.1,0.2,0.3,0.4,0.4,0.6c0.1,0.2,0.1,0.5,0.1,0.7c0,0.4-0.1,0.7-0.2,0.9c-0.1,0.3-0.3,0.5-0.5,0.6
		c-0.2,0.2-0.4,0.3-0.7,0.3c-0.3,0.1-0.5,0.1-0.8,0.1c-0.1,0-0.2,0-0.4,0c-0.1,0-0.3,0-0.4-0.1c-0.1,0-0.3-0.1-0.4-0.1
		C206.7,78.6,206.6,78.6,206.4,78.6L206.4,78.6L206.4,78.6L206.4,78.6L206.4,78.6c0,0.1,0.2,0.2,0.3,0.3c0.1,0.1,0.3,0.1,0.4,0.1
		c0.2,0,0.3,0.1,0.5,0.1c0.2,0,0.3,0,0.4,0c0.3,0,0.6,0,0.9-0.1c0.3-0.1,0.5-0.2,0.7-0.4c0.2-0.2,0.4-0.4,0.5-0.7
		c0.1-0.3,0.2-0.6,0.2-1c0-0.3,0-0.6-0.1-0.8c-0.1-0.2-0.2-0.4-0.4-0.6c-0.2-0.2-0.3-0.4-0.5-0.5c-0.2-0.2-0.4-0.3-0.6-0.4
		c-0.2-0.1-0.4-0.3-0.6-0.4c-0.2-0.1-0.3-0.2-0.4-0.3c-0.1-0.1-0.2-0.2-0.2-0.4c-0.1-0.1-0.1-0.3-0.1-0.5c0-0.2,0-0.4,0.1-0.5
		c0.1-0.1,0.2-0.3,0.3-0.3c0.1-0.1,0.3-0.2,0.4-0.2c0.2,0,0.3-0.1,0.5-0.1c0.6,0,1,0.2,1.4,0.5l0.1,0.1v-1.2l0,0
		c-0.3-0.2-0.8-0.3-1.4-0.3c-0.3,0-0.6,0-0.8,0.1c-0.3,0.1-0.5,0.2-0.7,0.4c-0.2,0.2-0.4,0.4-0.5,0.7c-0.1,0.3-0.2,0.6-0.2,1
		c0,0.3,0,0.6,0.1,0.8c0.1,0.2,0.2,0.4,0.3,0.6c0.1,0.2,0.3,0.3,0.5,0.5c0.2,0.1,0.4,0.3,0.6,0.4c0.2,0.1,0.4,0.3,0.6,0.4
		c0.2,0.1,0.3,0.2,0.5,0.4c0.1,0.1,0.2,0.3,0.3,0.4c0.1,0.1,0.1,0.3,0.1,0.5c0,0.4-0.1,0.7-0.3,0.8c-0.2,0.2-0.5,0.3-1,0.3
		c-0.1,0-0.3,0-0.4,0c-0.1,0-0.3-0.1-0.5-0.1c-0.1-0.1-0.3-0.1-0.4-0.2c-0.1-0.1-0.2-0.2-0.3-0.3l-0.1-0.2L206.4,78.6L206.4,78.6
		L206.4,78.6z M201.2,77.6L201.2,77.6l-0.8,2.6h-0.4l0.5-2.5L201.2,77.6L201.2,77.6L201.2,77.6L201.2,77.6L201.2,77.6l-0.8-0.1
		l-0.5,2.8h0.7l0.7-2.8L201.2,77.6L201.2,77.6z M196.1,71.7L196.1,71.7c-0.7-0.1-1.3,0.2-1.7,0.8c-0.4,0.6-0.6,1.4-0.6,2.4
		c0,1,0.2,1.8,0.6,2.4c0.4,0.6,1,0.9,1.6,0.9c0.7,0,1.3-0.3,1.7-0.9c0.4-0.6,0.6-1.4,0.6-2.4c0-1-0.2-1.9-0.6-2.4
		C197.4,72,196.8,71.7,196.1,71.7L196.1,71.7c0.7,0.1,1.2,0.3,1.5,0.9c0.4,0.5,0.6,1.3,0.6,2.4c0,1-0.2,1.8-0.6,2.3
		c-0.4,0.5-0.9,0.8-1.6,0.8c-0.6,0-1.1-0.3-1.5-0.8c-0.4-0.6-0.6-1.3-0.6-2.3c0-1,0.2-1.7,0.6-2.3C195,72.1,195.5,71.8,196.1,71.7
		L196.1,71.7z M196,79L196,79c-0.9-0.1-1.6-0.4-2.1-1.1c-0.5-0.7-0.8-1.6-0.8-2.8c0-1.2,0.3-2.2,0.8-3c0.5-0.7,1.3-1.1,2.2-1.1
		c0.9,0,1.5,0.3,2,1.1c0.5,0.7,0.8,1.6,0.8,2.8c0,1.3-0.3,2.3-0.8,3C197.6,78.6,196.9,78.9,196,79L196,79c0.9,0.1,1.7-0.3,2.3-1.1
		c0.6-0.8,0.8-1.8,0.8-3.1c0-1.2-0.3-2.2-0.8-2.9c-0.5-0.7-1.3-1.1-2.2-1.1c-1,0-1.7,0.4-2.3,1.2c-0.6,0.8-0.8,1.8-0.8,3.1
		c0,1.2,0.3,2.2,0.8,2.9C194.4,78.7,195.1,79.1,196,79L196,79z M191.8,78.5L191.8,78.5c-0.5,0.2-1.1,0.4-1.7,0.4
		c-0.9,0-1.6-0.3-2.1-1c-0.5-0.7-0.8-1.6-0.8-2.8c0-1.2,0.3-2.2,0.9-3c0.6-0.8,1.3-1.1,2.3-1.1c0.6,0,1.1,0.1,1.5,0.3l0-0.1h-0.1v1
		h0.1l0-0.1c-0.5-0.3-1-0.5-1.5-0.5c-0.7,0-1.4,0.3-1.8,0.9c-0.5,0.6-0.7,1.4-0.7,2.5c0,1,0.2,1.7,0.6,2.3c0.4,0.6,1,0.9,1.7,0.9
		c0.6,0,1.2-0.2,1.7-0.5l0-0.1h-0.1L191.8,78.5L191.8,78.5L191.8,78.5L191.8,78.5L191.8,78.5l0.1-1l-0.1,0.1c-0.4,0.3-1,0.5-1.6,0.5
		c-0.7,0-1.2-0.3-1.6-0.8c-0.4-0.5-0.6-1.3-0.6-2.2c0-1,0.2-1.8,0.7-2.4c0.4-0.6,1-0.9,1.7-0.9c0.5,0,1,0.2,1.5,0.5l0.1,0.1v-1.2
		l0,0c-0.4-0.2-0.9-0.3-1.5-0.3c-1,0-1.8,0.4-2.4,1.2c-0.6,0.8-0.9,1.8-0.9,3.1c0,1.2,0.3,2.1,0.8,2.9c0.6,0.7,1.3,1.1,2.2,1.1
		C190.8,79.1,191.4,78.9,191.8,78.5L191.8,78.5L191.8,78.5L191.8,78.5z M186.1,71L186.1,71l-0.1,0.7h-0.6v6.4h0.6v0.6h-1.8v-0.6h0.6
		v-6.4h-0.6v-0.6L186.1,71L186.1,71L186.1,71L186.1,71L186.1,71l-2.1-0.1v0.9h0.6V78h-0.6V79h2.1V78h-0.6v-6.1h0.6L186.1,71
		L186.1,71L186.1,71z M183.4,78.9L183.4,78.9l-0.9-0.1l-1.4-3c0-0.1-0.1-0.2-0.1-0.4l0-0.1h-0.1l0,0.1c0,0.1-0.1,0.2-0.1,0.4l0.1,0
		l-0.1,0l-1.5,3h-0.7l2.1-3.9l-1.9-3.8h0.7l1.3,2.7c0.1,0.2,0.2,0.4,0.2,0.5l0,0.1h0.1l0-0.1c0.1-0.2,0.2-0.4,0.2-0.6l1.3-2.7h0.7
		l-1.9,3.8L183.4,78.9L183.4,78.9L183.4,78.9L183.4,78.9L183.4,78.9l-1.9-3.9l2-4h-1l-1.4,2.8c-0.1,0.1-0.2,0.3-0.2,0.6l0.1,0v-0.1
		h0v0.1l0.1,0c-0.1-0.2-0.1-0.4-0.2-0.6l-1.3-2.8h-1.1l2,4l-2.2,4h1.1l1.5-3l0,0c0.1-0.2,0.1-0.3,0.1-0.4l-0.1,0v0.1h0v-0.1l-0.1,0
		c0.1,0.2,0.1,0.3,0.1,0.4l1.5,3h1.1L183.4,78.9L183.4,78.9z M177.5,78.9L177.5,78.9l-3.3-0.1v-7.7h3v0.7h-2.5v2.8h2.3v0.7h-2.3v2.9
		h2.6L177.5,78.9L177.5,78.9L177.5,78.9L177.5,78.9L177.5,78.9l0.1-0.9H175v-2.6h2.3v-1H175V72h2.5v-1h-3.4v8L177.5,78.9L177.5,78.9
		L177.5,78.9z M172.1,78.9L172.1,78.9l-0.7-0.1v-5.2c0-0.4,0-0.9,0.1-1.5l0-0.1h-0.2l0,0.1c-0.1,0.4-0.1,0.6-0.2,0.7l-2.1,6h-0.3
		l-2.1-5.9c-0.1-0.2-0.1-0.4-0.2-0.8l0-0.1h-0.2l0,0.1c0,0.3,0,0.8,0,1.5v5.2h-0.6v-7.7h0.8l1.9,5.4c0.1,0.4,0.2,0.7,0.3,0.9l0,0.1
		h0.1l0-0.1c0.1-0.4,0.2-0.7,0.3-1l2-5.4h0.8L172.1,78.9L172.1,78.9L172.1,78.9L172.1,78.9L172.1,78.9l0.1-7.9h-1.1l-2,5.5
		c-0.1,0.2-0.2,0.5-0.3,1l0.1,0v-0.1h0v0.1l0.1,0c0-0.2-0.1-0.5-0.3-0.9l-2-5.5h-1.1v8h0.9v-5.3c0-0.7,0-1.2,0-1.5l-0.1,0v0.1h0
		v-0.1l-0.1,0c0.1,0.4,0.1,0.6,0.2,0.8l2.2,6h0.5l2.2-6.1c0.1-0.2,0.1-0.4,0.2-0.8l-0.1,0v0.1h0v-0.1l-0.1,0c0,0.6-0.1,1.1-0.1,1.5
		V79L172.1,78.9L172.1,78.9L172.1,78.9z M160.4,78.9L160.4,78.9l-3.3-0.1v-7.7h3v0.7h-2.5v2.8h2.3v0.7h-2.3v2.9h2.6L160.4,78.9
		L160.4,78.9L160.4,78.9L160.4,78.9L160.4,78.9l0.1-0.9h-2.6v-2.6h2.3v-1h-2.3V72h2.5v-1h-3.4v8L160.4,78.9L160.4,78.9L160.4,78.9z
		 M151.1,71.9L151.1,71.9l-0.1,6.3h1c0.8,0,1.5-0.3,2-0.9c0.5-0.6,0.7-1.4,0.7-2.4c0-1-0.2-1.8-0.7-2.3c-0.4-0.5-1.1-0.8-2-0.8
		L151.1,71.9L151.1,71.9L151.1,71.9L151.1,71.9l1,0.1c0.8,0,1.5,0.2,1.9,0.7c0.4,0.5,0.6,1.2,0.6,2.2c0,1-0.2,1.8-0.7,2.3
		c-0.4,0.5-1.1,0.8-1.9,0.8h-0.9L151.1,71.9L151.1,71.9L151.1,71.9L151.1,71.9z M150.3,78.9L150.3,78.9l0.1-7.8l1.7,0
		c1.1,0,1.9,0.3,2.4,0.9c0.5,0.6,0.8,1.5,0.8,2.8c0,1.2-0.3,2.1-0.9,2.9c-0.6,0.7-1.4,1.1-2.4,1.1L150.3,78.9L150.3,78.9L150.3,78.9
		L150.3,78.9L150.3,78.9L152,79c1.1,0,1.9-0.4,2.5-1.1s0.9-1.7,0.9-3c0-1.3-0.3-2.3-0.9-2.9c-0.6-0.7-1.4-1-2.6-1h-1.8L150.3,78.9
		L150.3,78.9L150.3,78.9z"/>
	<polyline fill="#17479D" points="63.9,27.3 63.9,20.9 92.6,20.9 92.6,27.5 83.9,27.5 83.9,54.2 74,54.2 74,27.3 63.9,27.3 	"/>
	<polyline fill="#17479D" points="192.9,27.3 192.9,20.9 221.6,20.9 221.6,27.5 212.9,27.5 212.9,54.2 202.9,54.2 202.9,27.3 
		192.9,27.3 	"/>
	<path fill="#17479D" d="M238.8,27.8c3.8,0,6.9,2.8,6.9,6.3V41c0,3.4-3.1,6.3-6.9,6.3c-3.8,0-6.9-2.8-6.9-6.3v-6.9
		C231.9,30.7,235,27.8,238.8,27.8 M238.8,54.2c9.9,0,18-7.5,18-16.6c0-9.2-8.1-16.6-18-16.6c-9.9,0-18,7.5-18,16.6
		C220.8,46.7,228.9,54.2,238.8,54.2z"/>
	<path fill="#17479D" d="M96.4,23.2l0.2,28.9l0,2.1h9V39.8c0.1-0.9,0.5-1.1,1-1.2c0.8-0.1,1.6,0.6,2,1.2l8.9,14.4h7.7l0-2.2
		l-7.6-12.9c3.8-0.7,7.7-4.3,7.7-8.7c0-2-2.2-9.3-8.6-9.4H98.4C97.3,21.1,96.7,21.9,96.4,23.2 M105.3,27.7h9.6
		c0.6,0,0.9,0.3,0.9,0.9v2.3c0,0.5-0.4,0.9-0.9,0.9h-9.6V27.7z"/>
	<path fill="#17479D" d="M175.1,54.2c8.7,0,16-5.8,17.7-13.4H182V41c0,3.4-3.1,6.3-6.9,6.3c-3.8,0-6.9-2.8-6.9-6.3v-6.9
		c0-3.4,3.1-6.3,6.9-6.3c3.8,0,6.9,2.8,6.9,6.3v0.2h10.8c-1.7-7.6-9-13.4-17.7-13.4c-9.9,0-18,7.5-18,16.6
		C157.1,46.7,165.2,54.2,175.1,54.2"/>
	<path fill="#EC1C24" d="M67.9,41.2v-7.6H43.5c-1.2,2.5-3.3,5.7-4.4,7.6L67.9,41.2"/>
	<path fill="#EC1C24" d="M67.9,46.8v7.3L26.5,54c2.8-2.4,4.8-3.8,8-7.4L67.9,46.8"/>
	<path fill="#EC1C24" d="M58.8,20.7l-10.8,0c-0.5,2.2-1.9,5.8-2.5,7.5l13.3-0.1V20.7"/>
	<path fill="#EC1C24" d="M19,59.2C14.9,62,6.3,65,1.1,66.8h255.6v-7.5L19,59.2"/>
	<path fill="#17479D" d="M141.6,31.1l1.9,6.8h-4.3L141.6,31.1 M138.4,20.9l-10.7,33.3h8.3l2.2-7h6.7l2.3,7h11.1l-12.2-33.3H138.4z"
		/>
</g>
</svg>
